<svg xmlns="http://www.w3.org/2000/svg" xmlns:xlink="http://www.w3.org/1999/xlink" width="500" zoomAndPan="magnify" viewBox="0 0 375 374.999991" height="500" preserveAspectRatio="xMidYMid meet" version="1.2"><defs><clipPath id="525b92fbf2"><path d="M 119 112.5 L 256 112.5 L 256 262 L 119 262 Z M 119 112.5 "/></clipPath><clipPath id="2f2a48a899"><path d="M 19 2.070312 L 356 2.070312 L 356 374 L 19 374 Z M 19 2.070312 "/></clipPath><clipPath id="44d7a0cfbf"><path d="M 19 2.070312 L 351 2.070312 L 351 281 L 19 281 Z M 19 2.070312 "/></clipPath></defs><g id="a2000a02c1"><g clip-rule="nonzero" clip-path="url(#525b92fbf2)"><path style=" stroke:none;fill-rule:nonzero;fill:#000000;fill-opacity:1;" d="M 187.59375 112.5 C 185.269531 112.5 182.957031 113.082031 180.875 114.25 L 126.113281 144.980469 C 121.949219 147.328125 119.320312 151.703125 119.320312 156.445312 L 119.320312 217.90625 C 119.320312 222.660156 121.949219 227.035156 126.113281 229.382812 L 180.875 260.101562 C 185.042969 262.445312 190.144531 262.445312 194.3125 260.101562 L 249.074219 229.382812 C 253.253906 227.035156 255.867188 222.648438 255.867188 217.90625 L 255.867188 156.445312 C 255.867188 151.703125 253.238281 147.328125 249.074219 144.980469 L 194.3125 114.25 C 192.230469 113.082031 189.917969 112.5 187.59375 112.5 Z M 187.59375 118.992188 C 188.8125 118.992188 190.042969 119.296875 191.136719 119.90625 L 245.898438 150.636719 C 248.070312 151.867188 249.367188 154.074219 249.367188 156.445312 L 249.367188 183.929688 L 242.863281 183.929688 L 242.863281 177.433594 L 236.363281 177.433594 L 236.363281 183.929688 L 229.859375 183.929688 L 229.859375 190.421875 L 236.363281 190.421875 L 236.363281 196.914062 L 242.863281 196.914062 L 242.863281 190.421875 L 249.367188 190.421875 L 249.367188 217.90625 C 249.367188 220.277344 248.070312 222.484375 245.886719 223.714844 L 191.136719 254.445312 C 188.953125 255.660156 186.234375 255.660156 184.050781 254.445312 L 129.300781 223.714844 C 127.117188 222.484375 125.820312 220.289062 125.820312 217.90625 L 125.820312 156.445312 C 125.820312 154.074219 127.117188 151.867188 129.300781 150.636719 L 184.050781 119.90625 C 185.144531 119.296875 186.375 118.992188 187.59375 118.992188 Z M 187.59375 144.96875 C 164.316406 144.96875 145.328125 163.929688 145.328125 187.175781 C 145.328125 210.421875 164.316406 229.382812 187.59375 229.382812 C 200.890625 229.382812 213.234375 223.195312 221.210938 212.707031 L 223.433594 209.777344 L 203.75 198.386719 L 201.96875 200.316406 C 198.300781 204.320312 193.09375 206.65625 187.59375 206.65625 C 176.8125 206.65625 168.085938 197.941406 168.085938 187.175781 C 168.085938 176.40625 176.8125 167.695312 187.59375 167.695312 C 193.09375 167.695312 198.300781 170.027344 201.96875 174.035156 L 203.75 175.964844 L 223.433594 164.574219 L 221.210938 161.644531 C 213.234375 151.15625 200.890625 144.96875 187.59375 144.96875 Z M 187.59375 151.460938 C 197.589844 151.460938 206.734375 155.734375 213.425781 162.863281 L 204.511719 168.011719 C 199.8125 163.902344 193.96875 161.203125 187.59375 161.203125 C 173.28125 161.203125 161.585938 172.882812 161.585938 187.175781 C 161.585938 201.46875 173.28125 213.148438 187.59375 213.148438 C 193.96875 213.148438 199.8125 210.449219 204.511719 206.339844 L 213.425781 211.488281 C 206.734375 218.617188 197.589844 222.890625 187.59375 222.890625 C 167.84375 222.890625 151.832031 206.898438 151.832031 187.175781 C 151.832031 167.453125 167.84375 151.460938 187.59375 151.460938 Z M 213.601562 177.433594 L 213.601562 183.929688 L 207.101562 183.929688 L 207.101562 190.421875 L 213.601562 190.421875 L 213.601562 196.914062 L 220.105469 196.914062 L 220.105469 190.421875 L 226.609375 190.421875 L 226.609375 183.929688 L 220.105469 183.929688 L 220.105469 177.433594 Z M 213.601562 177.433594 "/></g><g clip-rule="nonzero" clip-path="url(#2f2a48a899)"><path style=" stroke:none;fill-rule:evenodd;fill:#283593;fill-opacity:1;" d="M 177.804688 5.480469 C 183.804688 2.117188 191.195312 2.117188 197.183594 5.480469 C 226.832031 22.113281 316.054688 72.179688 345.710938 88.8125 C 351.710938 92.167969 355.40625 98.386719 355.40625 105.117188 C 355.40625 138.382812 355.40625 238.503906 355.40625 271.769531 C 355.40625 278.5 351.710938 284.71875 345.710938 288.082031 C 316.0625 304.714844 226.84375 354.78125 197.183594 371.414062 C 191.183594 374.777344 183.796875 374.777344 177.804688 371.414062 C 148.15625 354.78125 58.9375 304.714844 29.28125 288.082031 C 23.289062 284.71875 19.59375 278.507812 19.59375 271.777344 C 19.59375 238.511719 19.59375 138.390625 19.59375 105.125 C 19.59375 98.394531 23.289062 92.175781 29.289062 88.8125 C 58.929688 72.179688 148.167969 22.113281 177.804688 5.480469 Z M 177.804688 5.480469 "/></g><g clip-rule="nonzero" clip-path="url(#44d7a0cfbf)"><path style=" stroke:none;fill-rule:evenodd;fill:#5c6bc0;fill-opacity:1;" d="M 22.28125 280.34375 C 19.929688 277.199219 19.59375 274.214844 19.59375 270.195312 C 19.59375 237.125 19.59375 137.578125 19.59375 104.5 C 19.59375 97.804688 23.28125 91.621094 29.261719 88.28125 C 58.804688 71.746094 147.722656 21.972656 177.265625 5.429688 C 183.25 2.082031 191.351562 2.152344 197.335938 5.5 C 226.878906 22.035156 315.496094 71.382812 345.039062 87.917969 C 347.425781 89.261719 349.246094 90.878906 350.871094 93.007812 Z M 22.28125 280.34375 "/></g><path style=" stroke:none;fill-rule:evenodd;fill:#ffffff;fill-opacity:1;" d="M 187.5 64.785156 C 255.785156 64.785156 311.21875 120.195312 311.21875 188.445312 C 311.21875 256.699219 255.785156 312.109375 187.5 312.109375 C 119.214844 312.109375 63.78125 256.699219 63.78125 188.445312 C 63.78125 120.195312 119.214844 64.785156 187.5 64.785156 Z M 187.5 126.617188 C 221.636719 126.617188 249.359375 154.316406 249.359375 188.445312 C 249.359375 222.570312 221.636719 250.277344 187.5 250.277344 C 153.363281 250.277344 125.640625 222.570312 125.640625 188.445312 C 125.640625 154.316406 153.351562 126.617188 187.5 126.617188 Z M 187.5 126.617188 "/><path style=" stroke:none;fill-rule:evenodd;fill:#3949ab;fill-opacity:1;" d="M 350.855469 93.09375 C 355.414062 97.363281 355.324219 103.792969 355.324219 108.851562 C 355.324219 142.375 355.042969 237.71875 355.40625 271.238281 C 355.441406 274.734375 354.28125 278.417969 352.550781 281.191406 L 183.902344 188.445312 Z M 350.855469 93.09375 "/></g></svg>